<svg xmlns="http://www.w3.org/2000/svg" viewBox="0 0 128 128">
  <defs>
    <filter id="worn" x="-5%" y="-5%" width="110%" height="110%">
      <feTurbulence type="turbulence" baseFrequency="0.03" numOctaves="4" seed="5" result="warp"/>
      <feDisplacementMap in="SourceGraphic" in2="warp" scale="4.5" xChannelSelector="R" yChannelSelector="G"/>
    </filter>
  </defs>

  <g filter="url(#worn)">
    <!-- Teal shape (bottom-left) -->
    <path d="M36 90c-19-5-30-21-26-39s16-32 34-30c-3 9-5 19-3 29s9 19 17 25c-5 9-13 15-22 15z" fill="#1a6b5a" opacity="0.82"/>

    <!-- Terracotta shape (top-right) -->
    <path d="M66 18c19-5 38 7 43 27s-3 39-21 46c-3-10-9-18-17-24s-19-9-29-9c1-15 9-29 24-40z" fill="#c75b39" opacity="0.82"/>

    <!-- Ochre shape (bottom-right) -->
    <path d="M94 70c11 15 8 35-8 46s-35 5-44-10c9-3 17-9 23-17s9-18 9-29c11 1 16 4 20 10z" fill="#e8a838" opacity="0.82"/>

    <!-- Magenta center -->
    <ellipse cx="61" cy="57" rx="13" ry="14.5" fill="#b44b8c" opacity="0.65"/>

    <!-- Sprout -->
    <path d="M61 49c0 0-5 7-4 13s2 8 4 10c2-2 4-5 4-11s-4-12-4-12z" fill="#fdf6ec" opacity="0.88"/>
    <path d="M57 53c-4-3-9-1-10 2s0 6 3 6c1-2 4-4 7-8z" fill="#fdf6ec" opacity="0.65"/>
  </g>
</svg>
