<svg xmlns="http://www.w3.org/2000/svg" viewBox="0 0 128 128">
  <!-- Reimagining Schools Collective logo: overlapping organic shapes representing many voices, interconnection, and growth -->

  <!-- Teal shape (bottom-left) -->
  <path d="M38 88c-18-6-28-22-24-40s18-30 36-28c-4 8-6 18-4 28s8 20 16 26c-6 8-14 14-24 14z" fill="#1a6b5a" opacity="0.85"/>

  <!-- Terracotta shape (top) -->
  <path d="M64 20c20-4 38 8 42 28s-4 38-22 44c-2-10-8-18-16-24s-18-10-28-10c2-14 10-28 24-38z" fill="#c75b39" opacity="0.85"/>

  <!-- Ochre shape (right) -->
  <path d="M96 72c10 16 6 36-10 46s-36 4-44-12c10-2 18-8 24-16s10-18 10-28c10 0 16 4 20 10z" fill="#e8a838" opacity="0.85"/>

  <!-- Magenta accent (center overlap) -->
  <circle cx="62" cy="58" r="14" fill="#b44b8c" opacity="0.7"/>

  <!-- Small seed/sprout at center -->
  <path d="M62 50c0 0-4 6-4 12s2 8 4 10c2-2 4-4 4-10s-4-12-4-12z" fill="#fdf6ec" opacity="0.9"/>
  <path d="M58 54c-4-2-8-1-10 2s0 6 2 6c2-2 5-4 8-8z" fill="#fdf6ec" opacity="0.7"/>
</svg>
